<?xml version="1.0" encoding="UTF-8"?>
<svg width="28px" height="28px" viewBox="0 0 28 28" version="1.1" xmlns="http://www.w3.org/2000/svg" xmlns:xlink="http://www.w3.org/1999/xlink">
    <!-- Generator: Sketch 53.2 (72643) - https://sketchapp.com -->
    <title>Artboard</title>
    <desc>Created with Sketch.</desc>
    <g id="Artboard" stroke="none" stroke-width="1" fill="none" fill-rule="evenodd">
        <path d="M22.7466,14.5073 C23.1606,14.5073 23.4966,14.8423 23.4966,15.2573 L23.5016,24.5633 C23.5016,26.4583 21.9706,28.0003 20.0886,28.0003 L3.4136,28.0003 C1.5316,28.0003 -0.0004,26.4583 -0.0004,24.5643 L-0.0004,7.8123 C-0.0004,5.9173 1.5316,4.3763 3.4136,4.3763 L12.8576,4.3903 C13.2716,4.3913 13.6066,4.7273 13.6066,5.1413 C13.6056,5.5553 13.2696,5.8903 12.8566,5.8903 L12.8556,5.8903 L3.4126,5.8763 C2.3586,5.8763 1.4996,6.7443 1.4996,7.8123 L1.4996,24.5643 C1.4996,25.6313 2.3586,26.5003 3.4136,26.5003 L20.0886,26.5003 C21.1436,26.5003 22.0016,25.6313 22.0016,24.5643 L21.9966,15.2573 C21.9966,14.8433 22.3316,14.5073 22.7466,14.5073 Z M27.1021,4.3835 C27.5161,4.3835 27.8521,4.7195 27.8521,5.1335 C27.8521,5.5475 27.5161,5.8835 27.1021,5.8835 L23.5041,5.8835 L23.5041,9.5175 C23.5041,9.9315 23.1681,10.2675 22.7541,10.2675 C22.3401,10.2675 22.0041,9.9315 22.0041,9.5175 L22.0041,5.8835 L18.4071,5.8835 C17.9931,5.8835 17.6571,5.5475 17.6571,5.1335 C17.6571,4.7195 17.9931,4.3835 18.4071,4.3835 L22.0041,4.3835 L22.0041,0.7495 C22.0041,0.3355 22.3401,-0.0005 22.7541,-0.0005 C23.1681,-0.0005 23.5041,0.3355 23.5041,0.7495 L23.5041,4.3835 L27.1021,4.3835 Z" id="Combined-Shape" fill="#f2f4f7"></path>
        <path d="M15.5513,11.8845 L15.5513,11.8705 L8.8153,11.8705 C8.8013,11.8705 8.5793,12.1905 8.1503,12.8305 L8.1503,12.8655 L9.9283,12.8655 C10.2273,12.8655 10.5643,12.9265 10.9373,13.0485 C11.4603,13.2535 11.8123,13.5415 11.9943,13.9105 L11.9943,13.9245 L8.8153,13.9245 C8.8063,13.9245 8.5793,14.2475 8.1363,14.8925 C8.1363,14.9105 8.1453,14.9205 8.1643,14.9205 L12.1693,14.9205 C12.1693,15.0695 12.1413,15.2145 12.0853,15.3545 C11.7263,16.3125 10.8083,16.7915 9.3333,16.7915 C9.0213,16.7915 8.7473,16.7755 8.5143,16.7425 L8.5003,16.7785 L8.5003,17.7105 C8.5003,17.7245 9.8173,19.2665 12.4493,22.3375 L13.9133,22.3375 C13.9363,22.3375 13.9473,22.3285 13.9473,22.3095 L13.9473,22.1205 L10.6223,18.1035 C10.3273,17.7615 10.1813,17.5675 10.1813,17.5215 L10.1813,17.5075 C10.7783,17.5075 11.4043,17.3505 12.0573,17.0375 C12.4073,16.8975 12.7743,16.5915 13.1563,16.1185 C13.4463,15.6515 13.6053,15.2515 13.6333,14.9205 L14.8793,14.9205 C14.8883,14.9205 15.1083,14.5975 15.5373,13.9525 C15.5373,13.9385 15.5263,13.9295 15.5023,13.9245 L13.5843,13.9245 C13.4953,13.5085 13.3273,13.1555 13.0793,12.8655 L14.8793,12.8655 C14.9303,12.8235 15.1553,12.4965 15.5513,11.8845" id="Fill-7" fill="#f2f4f7"></path>
    </g>
</svg>