<svg width="105" height="100" xmlns="http://www.w3.org/2000/svg">
 <g>
  <title>background</title>
  <rect x="-1" y="-1" width="107" height="102" id="canvas_background" fill="none"/>
 </g>

 <g>
  <title>Layer 1</title>
  <path stroke="null" d="m58.087359,37.103336c0,-1.390549 -1.073747,-2.51911 -2.396757,-2.51911l-29.065471,0c-1.32301,0 -2.396757,1.128561 -2.396757,2.51911s1.073747,2.51911 2.396757,2.51911l11.775267,0c3.45133,0 6.359795,2.456132 7.247793,5.791433l-19.02306,0c-1.32301,0 -2.396757,1.128561 -2.396757,2.51911s1.073747,2.51911 2.396757,2.51911l18.774995,0c-1.104905,2.932244 -3.822827,5.014288 -6.999729,5.014288l-11.775267,0c-0.980274,0 -1.86228,0.627258 -2.225389,1.58452c-0.364307,0.958521 -0.135417,2.051815 0.575222,2.759685l19.498816,19.462641c0.463772,0.463516 1.055771,0.692755 1.650167,0.692755c0.632744,0 1.267884,-0.263247 1.73645,-0.783443c0.913164,-1.010163 0.873618,-2.60224 -0.086283,-3.562021l-15.145107,-15.114658l5.770192,0c5.844492,0 10.741066,-4.302639 12.00176,-10.051247l5.289643,0c1.32301,0 2.396757,-1.128561 2.396757,-2.51911s-1.073747,-2.51911 -2.396757,-2.51911l-5.145837,0c-0.341538,-2.156358 -1.186395,-4.132599 -2.412336,-5.791433l7.558173,0c1.32301,-0.002519 2.396757,-1.129821 2.396757,-2.521629zm23.815375,10.730148c-1.32301,0 -2.396757,1.128561 -2.396757,2.51911l0,34.00798c0,5.555896 -4.30098,10.076439 -9.587028,10.076439l-55.12541,0c-5.286047,0 -9.587028,-4.520542 -9.587028,-10.076439l0,-60.458632c0,-5.555896 4.30098,-10.076439 9.587028,-10.076439l44.340003,0c1.32301,0 2.396757,-1.128561 2.396757,-2.51911s-1.073747,-2.51911 -2.396757,-2.51911l-44.340003,0c-7.92967,0 -14.380542,6.780184 -14.380542,15.114658l0,60.458632c0,8.334474 6.450871,15.114658 14.380542,15.114658l55.12541,0c7.92967,0 14.380542,-6.780184 14.380542,-15.114658l0,-34.00798c0,-1.391808 -1.073747,-2.51911 -2.396757,-2.51911zm17.483143,-30.531609l-15.788636,-16.593375c-0.898784,-0.944666 -2.49023,-0.944666 -3.389014,0l-15.787438,16.593375c-0.935934,0.983712 -0.935934,2.578309 0,3.562021c0.935934,0.983712 2.453081,0.983712 3.389014,0l11.696174,-12.293255l0,32.965069c0,1.390549 1.073747,2.51911 2.396757,2.51911s2.396757,-1.128561 2.396757,-2.51911l0,-32.963809l11.698571,12.293255c0.468566,0.492486 1.079739,0.738099 1.693309,0.738099c0.614768,0 1.225941,-0.245613 1.694507,-0.738099c0.935934,-0.983712 0.935934,-2.579568 0,-3.563281z" id="svg_1" fill="#f2f4f7"/>
 </g>
</svg>
